<svg width="64" height="64" viewBox="0 0 64 64" fill="none" xmlns="http://www.w3.org/2000/svg">
<path fill-rule="evenodd" clip-rule="evenodd" d="M32 58.6667C17.28 58.6667 5.33331 46.72 5.33331 32C5.33331 17.28 17.28 5.33337 32 5.33337C46.72 5.33337 58.6666 17.28 58.6666 32C58.6666 46.72 46.72 58.6667 32 58.6667ZM41.6 32.8C42.1333 32.4 42.1333 31.6 41.6 31.2L28.2666 21.2C27.6074 20.7056 26.6666 21.176 26.6666 22V42C26.6666 42.8241 27.6074 43.2945 28.2666 42.8L41.6 32.8Z" fill="#F3F3F3"/>
<mask id="mask0" mask-type="alpha" maskUnits="userSpaceOnUse" x="5" y="5" width="54" height="54">
<path fill-rule="evenodd" clip-rule="evenodd" d="M32 58.6667C17.28 58.6667 5.33331 46.72 5.33331 32C5.33331 17.28 17.28 5.33337 32 5.33337C46.72 5.33337 58.6666 17.28 58.6666 32C58.6666 46.72 46.72 58.6667 32 58.6667ZM41.6 32.8C42.1333 32.4 42.1333 31.6 41.6 31.2L28.2666 21.2C27.6074 20.7056 26.6666 21.176 26.6666 22V42C26.6666 42.8241 27.6074 43.2945 28.2666 42.8L41.6 32.8Z" fill="white"/>
</mask>
<g mask="url(#mask0)">
<rect width="64" height="64" fill="#F3F3F3"/>
</g>
</svg>
